<?xml version="1.0" standalone="no"?><!DOCTYPE svg PUBLIC "-//W3C//DTD SVG 1.1//EN" "http://www.w3.org/Graphics/SVG/1.1/DTD/svg11.dtd"><svg t="1776242647317" class="icon" viewBox="0 0 1024 1024" version="1.1" xmlns="http://www.w3.org/2000/svg" p-id="7430" xmlns:xlink="http://www.w3.org/1999/xlink" width="200" height="200"><path d="M113.9 735.7h796.2c27.2 0 49.2 28.6 49.2 63.9s-22.1 63.9-49.2 63.9H113.9c-27.2 0-49.2-28.6-49.2-63.9s22-63.9 49.2-63.9z m796.2-447.4H113.9c-27.2 0-49.2-28.6-49.2-63.9s22.1-63.9 49.2-63.9h796.2c27.2 0 49.2 28.6 49.2 63.9s-22 63.9-49.2 63.9z m0 287.6H113.9c-27.2 0-49.2-28.6-49.2-63.9s22.1-63.9 49.2-63.9h796.2c27.2 0 49.2 28.6 49.2 63.9s-22 63.9-49.2 63.9z" fill="#ffffff" p-id="7431"></path></svg>