<?xml version="1.0" standalone="no"?><!DOCTYPE svg PUBLIC "-//W3C//DTD SVG 1.1//EN" "http://www.w3.org/Graphics/SVG/1.1/DTD/svg11.dtd"><svg t="1777442069029" class="icon" viewBox="0 0 1024 1024" version="1.1" xmlns="http://www.w3.org/2000/svg" p-id="11261" xmlns:xlink="http://www.w3.org/1999/xlink" width="200" height="200"><path d="M994.742857 222.500571L494.006857 723.382857H313.417143V542.939429L814.299429 42.057143a35.84 35.84 0 0 1 25.526857-10.459429 35.84 35.84 0 0 1 25.6 10.459429l129.389714 129.462857a35.84 35.84 0 0 1 10.459429 25.453714 35.913143 35.913143 0 0 1-10.459429 25.6z m-154.916571-85.650285L403.748571 573.001143v60.196571h60.123429l436.224-436.224-60.196571-60.123428z m-330.898286 45.129143h-375.954286v721.92h721.92v-375.954286a45.129143 45.129143 0 0 1 90.258286 0v406.016a60.196571 60.196571 0 0 1-60.196571 60.196571H102.912a60.196571 60.196571 0 0 1-60.196571-60.196571V151.917714c0-33.28 26.916571-60.196571 60.196571-60.196571h406.016a45.129143 45.129143 0 0 1 0 90.258286z" fill="#5584FF" p-id="11262"></path></svg>