<?xml version="1.0" standalone="no"?><!DOCTYPE svg PUBLIC "-//W3C//DTD SVG 1.1//EN" "http://www.w3.org/Graphics/SVG/1.1/DTD/svg11.dtd"><svg t="1774948218259" class="icon" viewBox="0 0 1024 1024" version="1.1" xmlns="http://www.w3.org/2000/svg" p-id="8563" xmlns:xlink="http://www.w3.org/1999/xlink" width="200" height="200"><path d="M884.578462 886.390154H133.198769V768.708923h164.312616c28.199385 0 46.946462-18.747077 46.946461-47.025231v-164.627692h164.391385c28.120615 0 46.946462-18.904615 46.946461-47.104v-164.627692h164.312616c28.199385 0 46.946462-18.904615 46.946461-47.104V133.513846h117.366154v752.876308zM931.446154 39.384615H720.187077c-28.120615 0-46.946462 18.825846-46.946462 47.025231v164.706462H508.928c-28.199385 0-46.946462 18.904615-46.946462 47.104v164.627692H297.590154c-28.120615 0-46.946462 18.904615-46.946462 47.104v164.627692H86.331077c-28.199385 0-46.946462 18.904615-46.946462 47.104v211.731693c0 28.356923 18.747077 47.104 46.946462 47.104h845.193846c28.120615 0 46.946462-18.825846 46.946462-47.104V86.409846c0-28.199385-18.825846-47.025231-46.946462-47.025231z" fill="#235BDA" p-id="8564"></path><path d="M86.331077 434.648615c28.199385 0 46.946462-18.825846 46.946461-47.02523V284.041846h117.366154c28.199385 0 46.946462-18.825846 46.946462-47.025231s-18.747077-47.025231-46.867692-47.02523h-117.366154v-56.477539h117.366154c28.120615 0 46.867692-18.904615 46.867692-47.104S278.843077 39.384615 250.722462 39.384615H86.331077C58.131692 39.384615 39.384615 58.210462 39.384615 86.409846v301.213539c0 23.552 18.747077 47.025231 46.946462 47.02523" fill="#235BDA" opacity=".5" p-id="8565"></path></svg>