<?xml version="1.0" standalone="no"?><!DOCTYPE svg PUBLIC "-//W3C//DTD SVG 1.1//EN" "http://www.w3.org/Graphics/SVG/1.1/DTD/svg11.dtd"><svg t="1774937245226" class="icon" viewBox="0 0 1024 1024" version="1.1" xmlns="http://www.w3.org/2000/svg" p-id="5930" xmlns:xlink="http://www.w3.org/1999/xlink" width="200" height="200"><path d="M928 938.666667H96a53.393333 53.393333 0 0 1-53.333333-53.333334V362.666667a21.333333 21.333333 0 0 1 10.746666-18.52l448-256a21.333333 21.333333 0 0 1 21.173334 0l448 256A21.333333 21.333333 0 0 1 981.333333 362.666667v522.666666a53.393333 53.393333 0 0 1-53.333333 53.333334z m-812.5-42.666667h793L604.586667 592.093333 522.28 637.333333a21.333333 21.333333 0 0 1-20.56 0l-82.306667-45.266666z m528-325.333333L938.666667 865.833333V408.346667zM85.333333 408.346667v457.486666L380.486667 570.666667z m13.726667-41.146667L512 594.32l412.94-227.12L512 131.24z" fill="#ffffff" p-id="5931"></path></svg>