<?xml version="1.0" standalone="no"?><!DOCTYPE svg PUBLIC "-//W3C//DTD SVG 1.1//EN" "http://www.w3.org/Graphics/SVG/1.1/DTD/svg11.dtd"><svg t="1776669602120" class="icon" viewBox="0 0 1024 1024" version="1.1" xmlns="http://www.w3.org/2000/svg" p-id="8060" xmlns:xlink="http://www.w3.org/1999/xlink" width="200" height="200"><path d="M750.08 791.466667H273.92c-21.333333 0-39.253333-21.333333-39.253333-48.426667V592.32a10.666667 10.666667 0 0 1 21.333333 0v150.72c0 14.72 8.213333 27.093333 17.92 27.093333h476.16c9.706667 0 17.92-12.8 17.92-27.093333V592.32a10.666667 10.666667 0 0 1 21.333333 0v150.72c0 26.666667-17.6 48.426667-39.253333 48.426667zM778.666667 432.213333a10.666667 10.666667 0 0 1-10.666667-10.666666V280.96c0-14.72-8.213333-27.093333-17.92-27.093333H273.92c-9.706667 0-17.92 12.8-17.92 27.093333v140.586667a10.666667 10.666667 0 0 1-21.333333 0V280.96c0-26.666667 17.6-48.426667 39.253333-48.426667h476.16c21.333333 0 39.253333 21.333333 39.253333 48.426667v140.586667a10.666667 10.666667 0 0 1-10.666666 10.666666z" fill="#333333" p-id="8061"></path><path d="M864 519.786667H160a10.666667 10.666667 0 0 1 0-21.333334h704a10.666667 10.666667 0 0 1 0 21.333334zM299.413333 416a10.666667 10.666667 0 0 1-10.666666-10.666667v-95.466666a21.333333 21.333333 0 0 1 21.333333-21.333334h89.92a10.666667 10.666667 0 0 1 0 21.333334h-89.92v96a10.666667 10.666667 0 0 1-10.666667 10.133333zM712.106667 733.226667h-96a10.666667 10.666667 0 0 1 0-21.333334h96v-89.92a10.666667 10.666667 0 0 1 21.333333 0v89.92a21.333333 21.333333 0 0 1-21.333333 21.333334z" fill="#00A99D" p-id="8062"></path></svg>